<mxfile host="65bd71144e">
    <diagram id="yfga_TLR9oVwcaI-TNAI" name="第 1 页">
        <mxGraphModel dx="2140" dy="1635" grid="1" gridSize="10" guides="1" tooltips="1" connect="1" arrows="1" fold="1" page="1" pageScale="1" pageWidth="827" pageHeight="1169" math="0" shadow="0">
            <root>
                <mxCell id="0"/>
                <mxCell id="1" parent="0"/>
                <mxCell id="89" style="edgeStyle=orthogonalEdgeStyle;rounded=0;orthogonalLoop=1;jettySize=auto;html=1;strokeColor=#00FF00;" parent="1" source="76" edge="1">
                    <mxGeometry relative="1" as="geometry">
                        <mxPoint x="275" y="530" as="targetPoint"/>
                    </mxGeometry>
                </mxCell>
                <mxCell id="76" value="" style="rounded=1;whiteSpace=wrap;html=1;strokeColor=#66FFB3;" parent="1" vertex="1">
                    <mxGeometry x="60" y="600" width="430" height="250" as="geometry"/>
                </mxCell>
                <mxCell id="80" style="edgeStyle=orthogonalEdgeStyle;rounded=0;orthogonalLoop=1;jettySize=auto;html=1;entryX=0.5;entryY=0;entryDx=0;entryDy=0;strokeColor=#00FF00;" parent="1" source="26" target="76" edge="1">
                    <mxGeometry relative="1" as="geometry"/>
                </mxCell>
                <mxCell id="88" style="edgeStyle=orthogonalEdgeStyle;rounded=0;orthogonalLoop=1;jettySize=auto;html=1;entryX=0.5;entryY=1;entryDx=0;entryDy=0;strokeColor=#00FF00;" parent="1" source="26" target="51" edge="1">
                    <mxGeometry relative="1" as="geometry"/>
                </mxCell>
                <object label="" id="26">
                    <mxCell style="ellipse;whiteSpace=wrap;html=1;aspect=fixed;strokeColor=#FF3333;" parent="1" vertex="1">
                        <mxGeometry x="80" y="140" width="390" height="390" as="geometry"/>
                    </mxCell>
                </object>
                <mxCell id="28" value="&lt;h1&gt;view&amp;nbsp;&lt;/h1&gt;" style="text;html=1;resizable=0;autosize=1;align=center;verticalAlign=middle;points=[];fillColor=none;strokeColor=none;rounded=0;" parent="1" vertex="1">
                    <mxGeometry x="240" y="615" width="70" height="50" as="geometry"/>
                </mxCell>
                <mxCell id="52" style="edgeStyle=orthogonalEdgeStyle;rounded=0;orthogonalLoop=1;jettySize=auto;html=1;entryX=0.5;entryY=0;entryDx=0;entryDy=0;strokeColor=#00FF00;" parent="1" source="51" target="26" edge="1">
                    <mxGeometry relative="1" as="geometry"/>
                </mxCell>
                <mxCell id="51" value="Server&amp;nbsp;" style="shape=datastore;whiteSpace=wrap;html=1;strokeColor=#7F00FF;" parent="1" vertex="1">
                    <mxGeometry x="122" width="306" height="90" as="geometry"/>
                </mxCell>
                <mxCell id="81" value="&lt;h1&gt;clients&lt;/h1&gt;" style="text;html=1;resizable=0;autosize=1;align=center;verticalAlign=middle;points=[];fillColor=none;strokeColor=none;rounded=0;" parent="1" vertex="1">
                    <mxGeometry x="231" y="150" width="90" height="50" as="geometry"/>
                </mxCell>
                <mxCell id="92" value="&lt;h2&gt;业务代码分离&lt;br&gt;&lt;/h2&gt;" style="whiteSpace=wrap;html=1;rounded=1;arcSize=50;align=center;verticalAlign=middle;strokeWidth=1;autosize=1;spacing=4;treeFolding=1;treeMoving=1;newEdgeStyle={&quot;edgeStyle&quot;:&quot;entityRelationEdgeStyle&quot;,&quot;startArrow&quot;:&quot;none&quot;,&quot;endArrow&quot;:&quot;none&quot;,&quot;segment&quot;:10,&quot;curved&quot;:1};" parent="1" vertex="1">
                    <mxGeometry x="567.5" y="255" width="150" height="60" as="geometry"/>
                </mxCell>
                <mxCell id="93" value="" style="edgeStyle=entityRelationEdgeStyle;startArrow=none;endArrow=none;segment=10;curved=1;strokeColor=#00FF00;" parent="1" source="26" target="92" edge="1">
                    <mxGeometry relative="1" as="geometry">
                        <mxPoint x="452" y="260" as="sourcePoint"/>
                    </mxGeometry>
                </mxCell>
                <mxCell id="94" value="&lt;h2&gt;业务模块 直接 和&amp;nbsp;&lt;/h2&gt;&lt;h2&gt;Server 接口交互&lt;/h2&gt;" style="whiteSpace=wrap;html=1;rounded=1;arcSize=50;align=center;verticalAlign=middle;strokeWidth=1;autosize=1;spacing=4;treeFolding=1;treeMoving=1;newEdgeStyle={&quot;edgeStyle&quot;:&quot;entityRelationEdgeStyle&quot;,&quot;startArrow&quot;:&quot;none&quot;,&quot;endArrow&quot;:&quot;none&quot;,&quot;segment&quot;:10,&quot;curved&quot;:1};" parent="1" vertex="1">
                    <mxGeometry x="553" y="80" width="180" height="90" as="geometry"/>
                </mxCell>
                <mxCell id="95" value="" style="edgeStyle=entityRelationEdgeStyle;startArrow=none;endArrow=none;segment=10;curved=1;strokeColor=#00FF00;" parent="1" target="94" edge="1">
                    <mxGeometry relative="1" as="geometry">
                        <mxPoint x="316" y="170" as="sourcePoint"/>
                    </mxGeometry>
                </mxCell>
                <mxCell id="97" value="&lt;h2&gt;单个视图&amp;amp;微前端合集&lt;/h2&gt;" style="whiteSpace=wrap;html=1;rounded=1;arcSize=50;align=center;verticalAlign=middle;strokeWidth=1;autosize=1;spacing=4;treeFolding=1;treeMoving=1;newEdgeStyle={&quot;edgeStyle&quot;:&quot;entityRelationEdgeStyle&quot;,&quot;startArrow&quot;:&quot;none&quot;,&quot;endArrow&quot;:&quot;none&quot;,&quot;segment&quot;:10,&quot;curved&quot;:1};" parent="1" vertex="1">
                    <mxGeometry x="535" y="618" width="220" height="60" as="geometry"/>
                </mxCell>
                <mxCell id="98" value="" style="edgeStyle=entityRelationEdgeStyle;startArrow=none;endArrow=none;segment=10;curved=1;strokeColor=#00FF00;" parent="1" target="97" edge="1">
                    <mxGeometry relative="1" as="geometry">
                        <mxPoint x="490" y="690" as="sourcePoint"/>
                    </mxGeometry>
                </mxCell>
                <mxCell id="99" value="产品" style="rounded=1;whiteSpace=wrap;html=1;" parent="1" vertex="1">
                    <mxGeometry x="216" y="210" width="120" height="60" as="geometry"/>
                </mxCell>
                <mxCell id="100" value="赋能工具" style="rounded=1;whiteSpace=wrap;html=1;" parent="1" vertex="1">
                    <mxGeometry x="95" y="290" width="120" height="60" as="geometry"/>
                </mxCell>
                <mxCell id="101" value="市场" style="rounded=1;whiteSpace=wrap;html=1;" parent="1" vertex="1">
                    <mxGeometry x="216" y="290" width="120" height="60" as="geometry"/>
                </mxCell>
                <mxCell id="102" value="订单" style="rounded=1;whiteSpace=wrap;html=1;" parent="1" vertex="1">
                    <mxGeometry x="336" y="290" width="120" height="60" as="geometry"/>
                </mxCell>
                <mxCell id="103" value="个人中心" style="rounded=1;whiteSpace=wrap;html=1;" parent="1" vertex="1">
                    <mxGeometry x="130" y="370" width="120" height="60" as="geometry"/>
                </mxCell>
                <mxCell id="104" value="PC" style="rounded=1;whiteSpace=wrap;html=1;" parent="1" vertex="1">
                    <mxGeometry x="90" y="670" width="120" height="60" as="geometry"/>
                </mxCell>
                <mxCell id="105" value="小程序" style="rounded=1;whiteSpace=wrap;html=1;" parent="1" vertex="1">
                    <mxGeometry x="220" y="670" width="120" height="60" as="geometry"/>
                </mxCell>
                <mxCell id="106" value="H5" style="rounded=1;whiteSpace=wrap;html=1;" parent="1" vertex="1">
                    <mxGeometry x="350" y="670" width="120" height="60" as="geometry"/>
                </mxCell>
                <mxCell id="107" value="扩展其他" style="rounded=1;whiteSpace=wrap;html=1;" parent="1" vertex="1">
                    <mxGeometry x="216" y="750" width="120" height="60" as="geometry"/>
                </mxCell>
                <mxCell id="108" value="Server&amp;nbsp;" style="shape=datastore;whiteSpace=wrap;html=1;strokeColor=#7F00FF;" parent="1" vertex="1">
                    <mxGeometry x="2250" y="10" width="306" height="90" as="geometry"/>
                </mxCell>
                <mxCell id="109" value="" style="rounded=1;whiteSpace=wrap;html=1;strokeColor=#66FFB3;" parent="1" vertex="1">
                    <mxGeometry x="1165" y="710" width="450" height="300" as="geometry"/>
                </mxCell>
                <mxCell id="113" value="赋能工具" style="rounded=1;whiteSpace=wrap;html=1;" parent="1" vertex="1">
                    <mxGeometry x="1330" y="810" width="120" height="60" as="geometry"/>
                </mxCell>
                <mxCell id="114" value="市场互动" style="rounded=1;whiteSpace=wrap;html=1;" parent="1" vertex="1">
                    <mxGeometry x="1196" y="890" width="120" height="60" as="geometry"/>
                </mxCell>
                <mxCell id="116" value="个人中心" style="rounded=1;whiteSpace=wrap;html=1;" parent="1" vertex="1">
                    <mxGeometry x="1330" y="890" width="120" height="60" as="geometry"/>
                </mxCell>
                <mxCell id="117" value="SMB PC" style="text;strokeColor=none;fillColor=none;html=1;fontSize=24;fontStyle=1;verticalAlign=middle;align=center;" parent="1" vertex="1">
                    <mxGeometry x="1330" y="730" width="100" height="40" as="geometry"/>
                </mxCell>
                <mxCell id="121" value="商机" style="rounded=1;whiteSpace=wrap;html=1;" parent="1" vertex="1">
                    <mxGeometry x="1465" y="890" width="120" height="60" as="geometry"/>
                </mxCell>
                <mxCell id="122" value="商机" style="rounded=1;whiteSpace=wrap;html=1;" parent="1" vertex="1">
                    <mxGeometry x="280" y="370" width="120" height="60" as="geometry"/>
                </mxCell>
                <mxCell id="124" value="" style="rounded=1;whiteSpace=wrap;html=1;strokeColor=#66FFB3;" parent="1" vertex="1">
                    <mxGeometry x="2280" y="840" width="450" height="300" as="geometry"/>
                </mxCell>
                <mxCell id="125" value="SMB H5" style="text;strokeColor=none;fillColor=none;html=1;fontSize=24;fontStyle=1;verticalAlign=middle;align=center;" parent="1" vertex="1">
                    <mxGeometry x="2445" y="860" width="100" height="40" as="geometry"/>
                </mxCell>
                <mxCell id="127" value="市场互动" style="rounded=1;whiteSpace=wrap;html=1;" parent="1" vertex="1">
                    <mxGeometry x="2311" y="1020" width="120" height="60" as="geometry"/>
                </mxCell>
                <mxCell id="128" value="个人中心" style="rounded=1;whiteSpace=wrap;html=1;" parent="1" vertex="1">
                    <mxGeometry x="2445" y="1020" width="120" height="60" as="geometry"/>
                </mxCell>
                <mxCell id="129" value="赋能工具" style="rounded=1;whiteSpace=wrap;html=1;" parent="1" vertex="1">
                    <mxGeometry x="2445" y="940" width="120" height="60" as="geometry"/>
                </mxCell>
                <mxCell id="131" value="商机" style="rounded=1;whiteSpace=wrap;html=1;" parent="1" vertex="1">
                    <mxGeometry x="2580" y="1020" width="120" height="60" as="geometry"/>
                </mxCell>
                <mxCell id="132" value="" style="rounded=1;whiteSpace=wrap;html=1;strokeColor=#66FFB3;" parent="1" vertex="1">
                    <mxGeometry x="3200" y="720" width="450" height="300" as="geometry"/>
                </mxCell>
                <mxCell id="133" value="小程序" style="text;strokeColor=none;fillColor=none;html=1;fontSize=24;fontStyle=1;verticalAlign=middle;align=center;" parent="1" vertex="1">
                    <mxGeometry x="3365" y="740" width="100" height="40" as="geometry"/>
                </mxCell>
                <mxCell id="134" value="产品" style="rounded=1;whiteSpace=wrap;html=1;" parent="1" vertex="1">
                    <mxGeometry x="3231" y="820" width="120" height="60" as="geometry"/>
                </mxCell>
                <mxCell id="135" value="市场互动" style="rounded=1;whiteSpace=wrap;html=1;" parent="1" vertex="1">
                    <mxGeometry x="3231" y="900" width="120" height="60" as="geometry"/>
                </mxCell>
                <mxCell id="136" value="个人中心" style="rounded=1;whiteSpace=wrap;html=1;" parent="1" vertex="1">
                    <mxGeometry x="3365" y="900" width="120" height="60" as="geometry"/>
                </mxCell>
                <mxCell id="137" value="赋能工具" style="rounded=1;whiteSpace=wrap;html=1;" parent="1" vertex="1">
                    <mxGeometry x="3365" y="820" width="120" height="60" as="geometry"/>
                </mxCell>
                <mxCell id="138" value="订单" style="rounded=1;whiteSpace=wrap;html=1;" parent="1" vertex="1">
                    <mxGeometry x="3500" y="820" width="120" height="60" as="geometry"/>
                </mxCell>
                <mxCell id="139" value="商机" style="rounded=1;whiteSpace=wrap;html=1;" parent="1" vertex="1">
                    <mxGeometry x="3500" y="900" width="120" height="60" as="geometry"/>
                </mxCell>
                <mxCell id="141" value="" style="rounded=1;whiteSpace=wrap;html=1;strokeColor=#66FFB3;" parent="1" vertex="1">
                    <mxGeometry x="1175" y="70" width="435" height="320" as="geometry"/>
                </mxCell>
                <mxCell id="142" value="产品" style="rounded=1;whiteSpace=wrap;html=1;" parent="1" vertex="1">
                    <mxGeometry x="1206" y="190" width="120" height="60" as="geometry"/>
                </mxCell>
                <mxCell id="143" value="订单" style="rounded=1;whiteSpace=wrap;html=1;" parent="1" vertex="1">
                    <mxGeometry x="1475" y="190" width="120" height="60" as="geometry"/>
                </mxCell>
                <mxCell id="144" value="产品 PC" style="text;strokeColor=none;fillColor=none;html=1;fontSize=24;fontStyle=1;verticalAlign=middle;align=center;" parent="1" vertex="1">
                    <mxGeometry x="1340" y="120" width="100" height="40" as="geometry"/>
                </mxCell>
                <mxCell id="145" value="" style="rounded=1;whiteSpace=wrap;html=1;strokeColor=#66FFB3;" parent="1" vertex="1">
                    <mxGeometry x="1940" y="420" width="450" height="300" as="geometry"/>
                </mxCell>
                <mxCell id="146" value="产品" style="rounded=1;whiteSpace=wrap;html=1;" parent="1" vertex="1">
                    <mxGeometry x="1981" y="525" width="120" height="60" as="geometry"/>
                </mxCell>
                <mxCell id="147" value="订单" style="rounded=1;whiteSpace=wrap;html=1;" parent="1" vertex="1">
                    <mxGeometry x="2250" y="525" width="120" height="60" as="geometry"/>
                </mxCell>
                <mxCell id="148" value="产品 H5" style="text;strokeColor=none;fillColor=none;html=1;fontSize=24;fontStyle=1;verticalAlign=middle;align=center;" parent="1" vertex="1">
                    <mxGeometry x="2115" y="455" width="100" height="40" as="geometry"/>
                </mxCell>
                <mxCell id="149" value="" style="endArrow=classic;startArrow=classic;html=1;exitX=0.5;exitY=0;exitDx=0;exitDy=0;entryX=0.5;entryY=1;entryDx=0;entryDy=0;fillColor=#33FF33;strokeColor=#66FF66;" parent="1" source="109" target="108" edge="1">
                    <mxGeometry width="50" height="50" relative="1" as="geometry">
                        <mxPoint x="1580" y="520" as="sourcePoint"/>
                        <mxPoint x="1630" y="470" as="targetPoint"/>
                    </mxGeometry>
                </mxCell>
                <mxCell id="150" value="" style="endArrow=classic;startArrow=classic;html=1;entryX=0.5;entryY=1;entryDx=0;entryDy=0;strokeColor=#33FF33;exitX=1;exitY=0.5;exitDx=0;exitDy=0;" parent="1" source="141" target="108" edge="1">
                    <mxGeometry width="50" height="50" relative="1" as="geometry">
                        <mxPoint x="1610" y="100" as="sourcePoint"/>
                        <mxPoint x="2400" y="100" as="targetPoint"/>
                    </mxGeometry>
                </mxCell>
                <mxCell id="151" value="" style="endArrow=classic;startArrow=classic;html=1;exitX=0.5;exitY=0;exitDx=0;exitDy=0;entryX=0.5;entryY=1;entryDx=0;entryDy=0;strokeColor=#33FF33;" parent="1" source="145" target="108" edge="1">
                    <mxGeometry width="50" height="50" relative="1" as="geometry">
                        <mxPoint x="2490" y="350" as="sourcePoint"/>
                        <mxPoint x="2400" y="90" as="targetPoint"/>
                    </mxGeometry>
                </mxCell>
                <mxCell id="152" value="" style="endArrow=classic;startArrow=classic;html=1;entryX=0.5;entryY=1;entryDx=0;entryDy=0;exitX=0.5;exitY=0;exitDx=0;exitDy=0;strokeColor=#33FF33;" parent="1" source="124" target="108" edge="1">
                    <mxGeometry width="50" height="50" relative="1" as="geometry">
                        <mxPoint x="2490" y="350" as="sourcePoint"/>
                        <mxPoint x="2540" y="300" as="targetPoint"/>
                    </mxGeometry>
                </mxCell>
                <mxCell id="153" value="" style="endArrow=classic;startArrow=classic;html=1;entryX=0.5;entryY=0;entryDx=0;entryDy=0;exitX=0.5;exitY=1;exitDx=0;exitDy=0;strokeColor=#33FF33;" parent="1" source="108" target="132" edge="1">
                    <mxGeometry width="50" height="50" relative="1" as="geometry">
                        <mxPoint x="2410" y="110" as="sourcePoint"/>
                        <mxPoint x="3130" y="150" as="targetPoint"/>
                    </mxGeometry>
                </mxCell>
                <mxCell id="156" value="&lt;h1&gt;&lt;font color=&quot;#ffffff&quot;&gt;当前架构存在的问题&lt;/font&gt;&lt;/h1&gt;&lt;h1&gt;&lt;font color=&quot;#ffffff&quot;&gt;维护升级一次需求需要需要同一需求需要编写 N 套业务代码。（N为端+业务）切没有TS语法泛型检查&lt;/font&gt;&lt;/h1&gt;&lt;h1&gt;&lt;font color=&quot;#ffffff&quot;&gt;维护成本直线上升，以订单为例子&lt;/font&gt;&lt;/h1&gt;&lt;h1&gt;&lt;font color=&quot;#ffffff&quot;&gt;开发：开发周期 为 &lt;/font&gt;&lt;font color=&quot;#ff3333&quot;&gt;（业务+视图）*6 天&amp;nbsp; &amp;nbsp; &amp;nbsp; 列：（1+1）*6=12&lt;/font&gt;&lt;/h1&gt;&lt;h1&gt;&lt;font color=&quot;#ffffff&quot;&gt;订单需求：&lt;/font&gt;&lt;/h1&gt;&lt;blockquote style=&quot;margin: 0 0 0 40px ; border: none ; padding: 0px&quot;&gt;&lt;h1&gt;&lt;font color=&quot;#ffffff&quot;&gt;PC（视图+业务）+H5（视图+业务）+小程序（视图+业务）&lt;/font&gt;&lt;/h1&gt;&lt;h1&gt;&lt;font color=&quot;#ff3333&quot;&gt;相当于维护 6套代码且技术栈不一致&lt;/font&gt;&lt;/h1&gt;&lt;/blockquote&gt;&lt;h1&gt;&lt;font color=&quot;#ffffff&quot;&gt;维护：&lt;/font&gt;&lt;/h1&gt;&lt;h1&gt;&lt;font color=&quot;#ffffff&quot;&gt;订单需求变更：&lt;/font&gt;&lt;/h1&gt;&lt;blockquote style=&quot;margin: 0 0 0 40px ; border: none ; padding: 0px&quot;&gt;&lt;h1&gt;&lt;font color=&quot;#ffffff&quot;&gt;需要检查 多套代码 如果代码非一人开发，且技术栈不统一&amp;nbsp; 维护时间和Bug不可预测&lt;/font&gt;&lt;/h1&gt;&lt;/blockquote&gt;&lt;h1&gt;&lt;font color=&quot;#ffffff&quot;&gt;&amp;nbsp; &amp;nbsp; PC（视图+业务）+H5（视图+业务）+小程序（视图+业务）&lt;/font&gt;&lt;/h1&gt;&lt;div&gt;&lt;font color=&quot;#ffffff&quot;&gt;&lt;br&gt;&lt;/font&gt;&lt;/div&gt;&lt;div&gt;&lt;font color=&quot;#ffffff&quot;&gt;&lt;br&gt;&lt;/font&gt;&lt;/div&gt;&lt;div&gt;&lt;font color=&quot;#ffffff&quot;&gt;&lt;br&gt;&lt;/font&gt;&lt;/div&gt;&lt;div&gt;&lt;font color=&quot;#ffffff&quot;&gt;&lt;br&gt;&lt;/font&gt;&lt;/div&gt;&lt;h1&gt;&lt;font color=&quot;#ffffff&quot;&gt;调整后：开发周期&amp;nbsp;&lt;/font&gt;&lt;font color=&quot;#99ff33&quot;&gt; 业务+N 天 （N为端总数）1+3=4&lt;/font&gt;&lt;/h1&gt;&lt;h1&gt;&lt;font color=&quot;#ffffff&quot;&gt;开发：&lt;/font&gt;&lt;/h1&gt;&lt;h1&gt;&lt;font color=&quot;#ffffff&quot;&gt;订单需求：&lt;/font&gt;&lt;/h1&gt;&lt;blockquote style=&quot;margin: 0 0 0 40px ; border: none ; padding: 0px&quot;&gt;&lt;h1&gt;&lt;font color=&quot;#ffffff&quot;&gt;业务+PC（视图）+H5(视图)+小程序（视图）&lt;/font&gt;&lt;/h1&gt;&lt;h1&gt;&lt;font color=&quot;#ffffff&quot;&gt;维护 1+N 套代码 （N=端）N可随时扩展 业务0成本 端越多表现越明显&lt;/font&gt;&lt;/h1&gt;&lt;h1&gt;&lt;font color=&quot;#99ff33&quot;&gt;且视图开发可不关注业务需求。技术栈可不一致&lt;/font&gt;&lt;/h1&gt;&lt;/blockquote&gt;&lt;h1&gt;&lt;font color=&quot;#ffffff&quot;&gt;维护：&lt;/font&gt;&lt;/h1&gt;&lt;h1&gt;&lt;font color=&quot;#ffffff&quot;&gt;订单需求变更：只需要更改 Clients ，视图变更业务不变更只需要更改 View 业务相同变更维护切只有一套代码方便维护&lt;/font&gt;&lt;/h1&gt;" style="text;html=1;strokeColor=none;fillColor=#808080;spacing=5;spacingTop=-20;whiteSpace=wrap;overflow=hidden;rounded=0;" parent="1" vertex="1">
                    <mxGeometry x="1654" y="1180" width="2077" height="1100" as="geometry"/>
                </mxCell>
                <mxCell id="281" style="edgeStyle=orthogonalEdgeStyle;rounded=0;orthogonalLoop=1;jettySize=auto;html=1;strokeColor=#00FF00;" parent="1" source="282" edge="1">
                    <mxGeometry relative="1" as="geometry">
                        <mxPoint x="263.5" y="1810" as="targetPoint"/>
                    </mxGeometry>
                </mxCell>
                <mxCell id="282" value="" style="rounded=1;whiteSpace=wrap;html=1;strokeColor=#66FFB3;" parent="1" vertex="1">
                    <mxGeometry x="48.5" y="1960" width="430" height="250" as="geometry"/>
                </mxCell>
                <mxCell id="283" style="edgeStyle=orthogonalEdgeStyle;rounded=0;orthogonalLoop=1;jettySize=auto;html=1;entryX=0.5;entryY=0;entryDx=0;entryDy=0;strokeColor=#00FF00;" parent="1" source="285" target="282" edge="1">
                    <mxGeometry relative="1" as="geometry"/>
                </mxCell>
                <mxCell id="284" style="edgeStyle=orthogonalEdgeStyle;rounded=0;orthogonalLoop=1;jettySize=auto;html=1;entryX=0.5;entryY=1;entryDx=0;entryDy=0;strokeColor=#00FF00;" parent="1" source="285" target="301" edge="1">
                    <mxGeometry relative="1" as="geometry"/>
                </mxCell>
                <object label="" id="285">
                    <mxCell style="ellipse;whiteSpace=wrap;html=1;aspect=fixed;strokeColor=#FF3333;" parent="1" vertex="1">
                        <mxGeometry x="68.5" y="1420" width="390" height="390" as="geometry"/>
                    </mxCell>
                </object>
                <mxCell id="286" value="&lt;h1&gt;view&amp;nbsp;&lt;/h1&gt;" style="text;html=1;resizable=0;autosize=1;align=center;verticalAlign=middle;points=[];fillColor=none;strokeColor=none;rounded=0;" parent="1" vertex="1">
                    <mxGeometry x="228.5" y="1975" width="70" height="50" as="geometry"/>
                </mxCell>
                <mxCell id="287" value="" style="rounded=1;whiteSpace=wrap;html=1;" parent="1" vertex="1">
                    <mxGeometry x="103.5" y="1550" width="320" height="180" as="geometry"/>
                </mxCell>
                <mxCell id="288" value="" style="rounded=1;whiteSpace=wrap;html=1;" parent="1" vertex="1">
                    <mxGeometry x="124.5" y="1600" width="140" height="120" as="geometry"/>
                </mxCell>
                <mxCell id="289" value="" style="rounded=1;whiteSpace=wrap;html=1;" parent="1" vertex="1">
                    <mxGeometry x="264.5" y="1600" width="140" height="120" as="geometry"/>
                </mxCell>
                <mxCell id="290" value="helpers |&amp;nbsp;enums |&amp;nbsp;apis" style="rounded=1;whiteSpace=wrap;html=1;" parent="1" vertex="1">
                    <mxGeometry x="145.5" y="1480" width="236" height="60" as="geometry"/>
                </mxCell>
                <mxCell id="291" value="basesController" style="text;html=1;resizable=0;autosize=1;align=center;verticalAlign=middle;points=[];fillColor=none;strokeColor=none;rounded=0;" parent="1" vertex="1">
                    <mxGeometry x="213.5" y="1560" width="100" height="20" as="geometry"/>
                </mxCell>
                <mxCell id="292" value="basesDetails" style="text;html=1;resizable=0;autosize=1;align=center;verticalAlign=middle;points=[];fillColor=none;strokeColor=none;rounded=0;" parent="1" vertex="1">
                    <mxGeometry x="154.5" y="1610" width="80" height="20" as="geometry"/>
                </mxCell>
                <mxCell id="293" value="basesPagination" style="text;html=1;resizable=0;autosize=1;align=center;verticalAlign=middle;points=[];fillColor=none;strokeColor=none;rounded=0;" parent="1" vertex="1">
                    <mxGeometry x="284.5" y="1610" width="100" height="20" as="geometry"/>
                </mxCell>
                <mxCell id="294" value="baseModel" style="shape=cylinder3;whiteSpace=wrap;html=1;boundedLbl=1;backgroundOutline=1;size=15;" parent="1" vertex="1">
                    <mxGeometry x="141.5" y="1650" width="106" height="60" as="geometry"/>
                </mxCell>
                <mxCell id="295" value="baseModel" style="shape=cylinder3;whiteSpace=wrap;html=1;boundedLbl=1;backgroundOutline=1;size=15;" parent="1" vertex="1">
                    <mxGeometry x="284.5" y="1650" width="106" height="60" as="geometry"/>
                </mxCell>
                <mxCell id="296" value="Mobile (Vue)" style="whiteSpace=wrap;html=1;" parent="1" vertex="1">
                    <mxGeometry x="68.5" y="2030" width="120" height="60" as="geometry"/>
                </mxCell>
                <mxCell id="297" value="Reactjs" style="whiteSpace=wrap;html=1;" parent="1" vertex="1">
                    <mxGeometry x="204.5" y="2030" width="120" height="60" as="geometry"/>
                </mxCell>
                <mxCell id="298" value="Weapp (React)" style="whiteSpace=wrap;html=1;" parent="1" vertex="1">
                    <mxGeometry x="338.5" y="2030" width="120" height="60" as="geometry"/>
                </mxCell>
                <mxCell id="299" value="new BasesController&lt;br&gt;&amp;amp;&lt;br&gt;&amp;nbsp;extends BasesController" style="rounded=1;whiteSpace=wrap;html=1;strokeColor=#007FFF;" parent="1" vertex="1">
                    <mxGeometry x="163.5" y="1850" width="200" height="60" as="geometry"/>
                </mxCell>
                <mxCell id="300" style="edgeStyle=orthogonalEdgeStyle;rounded=0;orthogonalLoop=1;jettySize=auto;html=1;entryX=0.5;entryY=0;entryDx=0;entryDy=0;strokeColor=#00FF00;" parent="1" source="301" target="285" edge="1">
                    <mxGeometry relative="1" as="geometry"/>
                </mxCell>
                <mxCell id="301" value="Server&amp;nbsp;" style="shape=datastore;whiteSpace=wrap;html=1;strokeColor=#7F00FF;" parent="1" vertex="1">
                    <mxGeometry x="110.5" y="1280" width="306" height="90" as="geometry"/>
                </mxCell>
                <mxCell id="302" value="&lt;h1&gt;clients&lt;/h1&gt;" style="text;html=1;resizable=0;autosize=1;align=center;verticalAlign=middle;points=[];fillColor=none;strokeColor=none;rounded=0;" parent="1" vertex="1">
                    <mxGeometry x="219.5" y="1430" width="90" height="50" as="geometry"/>
                </mxCell>
                <mxCell id="303" value="&lt;h2&gt;通过继承或者直接实例化&lt;br&gt;视图 通过 调用对应&lt;br&gt;方法操作&amp;amp;获取数据&lt;/h2&gt;" style="whiteSpace=wrap;html=1;rounded=1;arcSize=50;align=center;verticalAlign=middle;strokeWidth=1;autosize=1;spacing=4;treeFolding=1;treeMoving=1;newEdgeStyle={&quot;edgeStyle&quot;:&quot;entityRelationEdgeStyle&quot;,&quot;startArrow&quot;:&quot;none&quot;,&quot;endArrow&quot;:&quot;none&quot;,&quot;segment&quot;:10,&quot;curved&quot;:1};" parent="1" vertex="1">
                    <mxGeometry x="531.5" y="1791" width="240" height="80" as="geometry"/>
                </mxCell>
                <mxCell id="304" value="" style="edgeStyle=entityRelationEdgeStyle;startArrow=none;endArrow=none;segment=10;curved=1;strokeColor=#00FF00;" parent="1" target="303" edge="1">
                    <mxGeometry relative="1" as="geometry">
                        <mxPoint x="363.5000000000002" y="1880" as="sourcePoint"/>
                    </mxGeometry>
                </mxCell>
                <mxCell id="305" value="&lt;h2&gt;业务代码分离&lt;br&gt;&lt;/h2&gt;" style="whiteSpace=wrap;html=1;rounded=1;arcSize=50;align=center;verticalAlign=middle;strokeWidth=1;autosize=1;spacing=4;treeFolding=1;treeMoving=1;newEdgeStyle={&quot;edgeStyle&quot;:&quot;entityRelationEdgeStyle&quot;,&quot;startArrow&quot;:&quot;none&quot;,&quot;endArrow&quot;:&quot;none&quot;,&quot;segment&quot;:10,&quot;curved&quot;:1};" parent="1" vertex="1">
                    <mxGeometry x="556" y="1535" width="150" height="60" as="geometry"/>
                </mxCell>
                <mxCell id="306" value="" style="edgeStyle=entityRelationEdgeStyle;startArrow=none;endArrow=none;segment=10;curved=1;strokeColor=#00FF00;" parent="1" source="285" target="305" edge="1">
                    <mxGeometry relative="1" as="geometry">
                        <mxPoint x="440.5" y="1540" as="sourcePoint"/>
                    </mxGeometry>
                </mxCell>
                <mxCell id="307" value="&lt;h2&gt;业务模块 直接 和&amp;nbsp;&lt;/h2&gt;&lt;h2&gt;Server 接口交互&lt;/h2&gt;" style="whiteSpace=wrap;html=1;rounded=1;arcSize=50;align=center;verticalAlign=middle;strokeWidth=1;autosize=1;spacing=4;treeFolding=1;treeMoving=1;newEdgeStyle={&quot;edgeStyle&quot;:&quot;entityRelationEdgeStyle&quot;,&quot;startArrow&quot;:&quot;none&quot;,&quot;endArrow&quot;:&quot;none&quot;,&quot;segment&quot;:10,&quot;curved&quot;:1};" parent="1" vertex="1">
                    <mxGeometry x="541.5" y="1360" width="180" height="90" as="geometry"/>
                </mxCell>
                <mxCell id="308" value="" style="edgeStyle=entityRelationEdgeStyle;startArrow=none;endArrow=none;segment=10;curved=1;strokeColor=#00FF00;" parent="1" target="307" edge="1">
                    <mxGeometry relative="1" as="geometry">
                        <mxPoint x="304.5" y="1450" as="sourcePoint"/>
                    </mxGeometry>
                </mxCell>
                <mxCell id="309" value="其他" style="whiteSpace=wrap;html=1;" parent="1" vertex="1">
                    <mxGeometry x="68.5" y="2110" width="120" height="60" as="geometry"/>
                </mxCell>
                <mxCell id="310" value="&lt;h2&gt;单个视图&amp;amp;微前端合集&lt;/h2&gt;" style="whiteSpace=wrap;html=1;rounded=1;arcSize=50;align=center;verticalAlign=middle;strokeWidth=1;autosize=1;spacing=4;treeFolding=1;treeMoving=1;newEdgeStyle={&quot;edgeStyle&quot;:&quot;entityRelationEdgeStyle&quot;,&quot;startArrow&quot;:&quot;none&quot;,&quot;endArrow&quot;:&quot;none&quot;,&quot;segment&quot;:10,&quot;curved&quot;:1};" parent="1" vertex="1">
                    <mxGeometry x="523.5" y="1978" width="220" height="60" as="geometry"/>
                </mxCell>
                <mxCell id="311" value="" style="edgeStyle=entityRelationEdgeStyle;startArrow=none;endArrow=none;segment=10;curved=1;strokeColor=#00FF00;" parent="1" target="310" edge="1">
                    <mxGeometry relative="1" as="geometry">
                        <mxPoint x="478.5000000000002" y="2050" as="sourcePoint"/>
                    </mxGeometry>
                </mxCell>
                <mxCell id="312" value="&lt;h1&gt;&lt;font color=&quot;#ffffff&quot;&gt;内部结构&lt;/font&gt;&lt;/h1&gt;" style="text;html=1;strokeColor=none;fillColor=none;align=center;verticalAlign=middle;whiteSpace=wrap;rounded=0;" parent="1" vertex="1">
                    <mxGeometry x="123.5" y="1190" width="466.5" height="90" as="geometry"/>
                </mxCell>
                <mxCell id="313" value="" style="endArrow=classic;startArrow=classic;html=1;entryX=0.5;entryY=1;entryDx=0;entryDy=0;exitX=0.5;exitY=0;exitDx=0;exitDy=0;strokeColor=#99FF33;" parent="1" source="109" target="141" edge="1">
                    <mxGeometry width="50" height="50" relative="1" as="geometry">
                        <mxPoint x="2480" y="580" as="sourcePoint"/>
                        <mxPoint x="2530" y="530" as="targetPoint"/>
                    </mxGeometry>
                </mxCell>
                <mxCell id="314" value="" style="endArrow=classic;startArrow=classic;html=1;strokeColor=#99FF33;entryX=0.5;entryY=0;entryDx=0;entryDy=0;exitX=0.5;exitY=1;exitDx=0;exitDy=0;" parent="1" source="145" target="124" edge="1">
                    <mxGeometry width="50" height="50" relative="1" as="geometry">
                        <mxPoint x="2180" y="600" as="sourcePoint"/>
                        <mxPoint x="2230" y="550" as="targetPoint"/>
                    </mxGeometry>
                </mxCell>
            </root>
        </mxGraphModel>
    </diagram>
</mxfile>